# xmcd
#
# Track frame offsets:
#	150
#	15606
#	31151
#	43144
#	63975
#	80291
#	101745
#	116402
#	132539
#	148374
#
# Disc length: 2191 seconds
#
# Revision: 1
# Processed by: cddbd v1.5.1PL0 Copyright (c) Steve Scherf et al.
# Submitted via: audiograbber 1.83.01
#
DISCID=89088d0a
DTITLE=Kimarie Lynn - Dream
DYEAR=2003
DGENRE=Country
TTITLE0=I Dream Too Small
TTITLE1=I've Got a Right to Cry
TTITLE2=Heart Be Still
TTITLE3=Please Help Me I'm Falling
TTITLE4=Everything But the Girl
TTITLE5=Sunday Kind of Love
TTITLE6=Perfect
TTITLE7=Cattle Call
TTITLE8=Cry
TTITLE9=I Dare You
EXTD=
EXTT0=
EXTT1=
EXTT2=
EXTT3=
EXTT4=
EXTT5=
EXTT6=
EXTT7=
EXTT8=
EXTT9=
PLAYORDER=
